<?xml version="1.0" encoding="UTF-8"?>
<svg id="Calque_1" data-name="Calque 1" xmlns="http://www.w3.org/2000/svg" version="1.1" xmlns:xlink="http://www.w3.org/1999/xlink" viewBox="0 0 48 48">
  <defs>
    <style>
      .cls-1 {
        fill: url(#Dégradé_sans_nom_534);
      }

      .cls-1, .cls-2 {
        stroke-width: 0px;
      }

      .cls-3 {
        isolation: isolate;
      }

      .cls-2 {
        fill: #fff;
      }
    </style>
    <linearGradient id="Dégradé_sans_nom_534" data-name="Dégradé sans nom 534" x1="23.99" y1="49.08" x2="23.99" y2="1.08" gradientTransform="translate(0 49.07) scale(1 -1)" gradientUnits="userSpaceOnUse">
      <stop offset="0" stop-color="#224685"/>
      <stop offset=".17" stop-color="#254583"/>
      <stop offset=".32" stop-color="#30437f"/>
      <stop offset=".46" stop-color="#424078"/>
      <stop offset=".6" stop-color="#5b3c6d"/>
      <stop offset=".74" stop-color="#7c3660"/>
      <stop offset=".87" stop-color="#a42f50"/>
      <stop offset=".99" stop-color="#d2273d"/>
      <stop offset="1" stop-color="#d5273d"/>
    </linearGradient>
  </defs>
  <g class="cls-3">
    <g id="Calque_2" data-name="Calque 2">
      <circle class="cls-1" cx="23.99" cy="23.99" r="24"/>
      <g>
        <path class="cls-2" d="M39.88,25.8c0,8.41-7.02,15.23-15.68,15.23-2.43,0-4.73-.54-6.78-1.49.5.07,1,.11,1.52.11.57,0,1.13-.05,1.68-.13.16-.03.33-.05.48-.09.28-.06.56-.13.83-.21,2.63-.76,4.83-2.52,6.13-4.81.19-.33.36-.68.51-1.03,2.77-1.45,4.66-4.3,4.66-7.58s-1.86-6.08-4.6-7.55c1.21-2.09,2.88-3.61,4.6-4.9,4.01,2.76,6.63,7.3,6.63,12.44h0Z"/>
        <path class="cls-2" d="M36.16,10.17c-1.02.94-2.35,1.76-3.69,2.7-1.79,1.25-3.6,2.71-4.76,4.96-.58,1.13-1,2.46-1.17,4.07-.02.21-.04.43-.05.65-.08,1.36,0,2.9.31,4.66.24,1.38.61,2.91,1.14,4.59-.11.26-.22.5-.35.75-.29.56-.63,1.09-1.01,1.59h0c-1.65,2.12-4.14,3.59-6.99,3.95-.44.05-.88.08-1.33.08-1.6,0-3.12-.35-4.48-.98-2.73-2.36-4.61-5.63-5.12-9.33-.09-.67-.14-1.36-.14-2.05,0-.53.03-1.05.08-1.56.46-4.41,2.87-8.27,6.37-10.75,1.58,1.2,3.11,2.6,4.26,4.47.12.2.24.4.35.61-.4.25-.78.53-1.13.84-1.8,1.58-2.93,3.86-2.93,6.39s1.19,4.94,3.08,6.52c.72.61,1.86.21,2.05-.7h0c1.66-5.38,1.73-9.14.92-11.9-.15-.51-.33-.99-.53-1.44-.06-.13-.12-.26-.18-.38-1.17-2.33-3.04-3.81-4.87-5.08-1.32-.92-2.62-1.72-3.62-2.65,1.51-1.2,6.05-1.67,8.53-1.47,0-3.34,3.37-5.54,3.37-5.54,0,0,3.37,2.33,3.37,5.54,2.48-.2,7.01.27,8.53,1.47h0Z"/>
      </g>
    </g>
  </g>
</svg>